<?xml version="1.0" encoding="UTF-8" standalone="no"?>
<svg
   xmlns:dc="http://purl.org/dc/elements/1.1/"
   xmlns:cc="http://creativecommons.org/ns#"
   xmlns:rdf="http://www.w3.org/1999/02/22-rdf-syntax-ns#"
   xmlns:svg="http://www.w3.org/2000/svg"
   xmlns="http://www.w3.org/2000/svg"
   xmlns:sodipodi="http://sodipodi.sourceforge.net/DTD/sodipodi-0.dtd"
   xmlns:inkscape="http://www.inkscape.org/namespaces/inkscape"
   id="Layer_1"
   viewBox="0 0 245 240"
   version="1.1"
   sodipodi:docname="discord.svg"
   inkscape:version="0.92.4 (5da689c313, 2019-01-14)">
  <metadata
     id="metadata13">
    <rdf:RDF>
      <cc:Work
         rdf:about="">
        <dc:format>image/svg+xml</dc:format>
        <dc:type
           rdf:resource="http://purl.org/dc/dcmitype/StillImage" />
        <dc:title></dc:title>
      </cc:Work>
    </rdf:RDF>
  </metadata>
  <defs
     id="defs11" />
  <sodipodi:namedview
     pagecolor="#ffffff"
     bordercolor="#666666"
     borderopacity="1"
     objecttolerance="10"
     gridtolerance="10"
     guidetolerance="10"
     inkscape:pageopacity="0"
     inkscape:pageshadow="2"
     inkscape:window-width="640"
     inkscape:window-height="480"
     id="namedview9"
     showgrid="false"
     inkscape:pagecheckerboard="true"
     inkscape:zoom="0.1767767"
     inkscape:cx="97.817522"
     inkscape:cy="282.60784"
     inkscape:current-layer="Layer_1" />
  <style
     id="style2">.st0{fill:#FFFFFF;}</style>
  <path
     class="st0"
     d="m 100.78077,100.68068 c -6.839757,0 -12.239565,5.99979 -12.239565,13.31953 0,7.31974 5.519804,13.31953 12.239565,13.31953 6.83976,0 12.23956,-5.99979 12.23956,-13.31953 0.12,-7.31974 -5.3998,-13.31953 -12.23956,-13.31953 z m 43.79845,0 c -6.83976,0 -12.23957,5.99979 -12.23957,13.31953 0,7.31974 5.5198,13.31953 12.23957,13.31953 6.83975,0 12.23956,-5.99979 12.23956,-13.31953 0,-7.31974 -5.39981,-13.31953 -12.23956,-13.31953 z"
     id="path4"
     inkscape:connector-curvature="0"
     style="fill:#ffffff;stroke-width:1.19995749" />
  <path
     class="st0"
     d="M 202.89715,0.00425569 H 42.102851 c -13.559519,0 -24.599127,11.03960831 -24.599127,24.71912331 V 186.95763 c 0,13.67952 11.039608,24.71912 24.599127,24.71912 H 178.17803 l -6.35978,-22.19921 15.35946,14.27949 14.51948,13.43952 25.79908,22.7992 V 24.723379 c 0,-13.679515 -11.0396,-24.71912331 -24.59912,-24.71912331 z M 156.57879,156.7187 c 0,0 -4.31985,-5.15982 -7.91973,-9.71965 15.71946,-4.43986 21.71924,-14.2795 21.71924,-14.2795 -4.91982,3.23988 -9.59965,5.5198 -13.79951,7.07974 -5.99979,2.51992 -11.75958,4.19986 -17.39938,5.15983 -11.5196,2.15992 -22.07922,1.55994 -31.0789,-0.12 -6.83975,-1.31995 -12.719547,-3.23988 -17.639374,-5.15982 -2.759901,-1.07995 -5.759795,-2.39991 -8.759689,-4.07986 -0.359988,-0.23999 -0.719975,-0.35998 -1.079962,-0.59997 -0.239991,-0.12 -0.359987,-0.23999 -0.479983,-0.35999 -2.159923,-1.19996 -3.35988,-2.03993 -3.35988,-2.03993 0,0 5.759795,9.59967 20.999255,14.1595 -3.599873,4.55984 -8.039715,9.95965 -8.039715,9.95965 -26.51906,-0.83998 -36.598702,-18.23936 -36.598702,-18.23936 0,-38.638625 17.279387,-69.957514 17.279387,-69.957514 C 87.701235,55.562285 104.14065,55.922272 104.14065,55.922272 l 1.19996,1.439949 C 83.741375,63.602 73.781727,73.081664 73.781727,73.081664 c 0,0 2.639908,-1.43995 7.07975,-3.479877 12.839545,-5.6398 23.039173,-7.199744 27.239033,-7.559731 0.71997,-0.119996 1.31995,-0.239993 2.03993,-0.239993 7.31974,-0.959964 15.59945,-1.199957 24.23913,-0.23999 11.3996,1.319952 23.63917,4.679834 36.11873,11.519591 0,0 -9.47967,-8.999681 -29.87894,-15.239459 l 1.67993,-1.919933 c 0,0 16.43943,-0.359987 33.71881,12.599554 0,0 17.27938,31.318889 17.27938,69.957514 0,0 -10.19963,17.39938 -36.71869,18.23936 z"
     id="path6"
     inkscape:connector-curvature="0"
     style="fill:#ffffff;stroke-width:1.19995749" />
</svg>
