<svg xmlns="http://www.w3.org/2000/svg" width="2133.15" height="2133.5" viewBox="0 0 2133.15 2133.5">
  <defs>
    <style>
      .cls-1 {
        fill: #fff;
        fill-rule: evenodd;
      }
    </style>
  </defs>
  <path id="White" class="cls-1" d="M8760.93,1116.74H6863.07a117.586,117.586,0,0,0-117.63,117.69V3132.57a117.592,117.592,0,0,0,117.63,117.69H7884.88V2423.09H7605.76V2102.18h279.19v-237.6c0-275.59,168.15-424.87,413.97-424.87,117.74,0,218.93,7.99,248.43,11.91v288.13l-170.49-.05c-133.68,0-158.65,63.53-158.65,156.76v205.72h317.91l-41.52,320.91H8218.21v827.17h542.72a117.647,117.647,0,0,0,117.68-117.69V1234.43A117.641,117.641,0,0,0,8760.93,1116.74Z" transform="translate(-6745.44 -1116.75)"/>
</svg>
