<svg id="Layer_2" data-name="Layer 2" xmlns="http://www.w3.org/2000/svg" viewBox="0 0 262.88 191.82"><defs><style>.cls-1,.cls-10,.cls-11,.cls-12,.cls-13,.cls-14,.cls-15,.cls-16,.cls-17,.cls-18,.cls-19,.cls-2,.cls-3,.cls-4,.cls-5,.cls-6,.cls-7,.cls-8,.cls-9{fill:none;stroke:rgb(150,150,255);stroke-linecap:round;stroke-miterlimit:10;}.cls-1,.cls-10,.cls-11,.cls-12,.cls-13,.cls-14,.cls-15,.cls-19,.cls-2,.cls-3,.cls-4,.cls-5,.cls-6,.cls-7,.cls-8,.cls-9{stroke-width:1.5px;}.cls-2{stroke-dasharray:5.26 6.31;}.cls-3{stroke-dasharray:5.09 6.11;}.cls-4{stroke-dasharray:5.01 6.01;}.cls-5{stroke-dasharray:5.27 6.32;}.cls-6{stroke-dasharray:4.99 5.98;}.cls-7{stroke-dasharray:5.48 6.57;}.cls-8{stroke-dasharray:5.39 6.46;}.cls-9{stroke-dasharray:4.96 5.96;}.cls-10{stroke-dasharray:5.26 6.31;}.cls-11{stroke-dasharray:5.02 6.02;}.cls-12{stroke-dasharray:5.09 6.1;}.cls-13{stroke-dasharray:5.26 6.31;}.cls-14{stroke-dasharray:5.06 6.07;}.cls-15{stroke-dasharray:5.08 6.1;}.cls-16,.cls-17,.cls-18{stroke-width:0.5px;}.cls-16{stroke-dasharray:4 5;}.cls-18{stroke-dasharray:3.99 4.99;}.cls-19{stroke-dasharray:5.26 6.32;}</style></defs><title>Model Haven Logo Dotted</title><polyline class="cls-1" points="129.42 35.8 131.44 37.27 133.46 35.8"/><polyline class="cls-2" points="138.56 32.09 154.72 20.35 173.43 6.76"/><polyline class="cls-1" points="175.98 4.91 178.01 3.44 180.03 4.91"/><polyline class="cls-3" points="184.97 8.49 218.72 33.02 254.95 59.34"/><polyline class="cls-1" points="257.42 61.13 259.44 62.6 258.67 64.98"/><polyline class="cls-4" points="256.81 70.69 239 125.49 220.27 183.15"/><polyline class="cls-1" points="219.34 186 218.57 188.38 216.19 187.61"/><polyline class="cls-5" points="210.18 185.66 185.63 177.68 158.07 168.72"/><polyline class="cls-1" points="155.06 167.75 152.68 166.97 153.46 164.6"/><polyline class="cls-6" points="155.31 158.91 166.25 125.23 178.11 88.72"/><polyline class="cls-1" points="179.04 85.87 179.81 83.49 177.79 84.96"/><polyline class="cls-7" points="172.47 88.83 155.62 101.06 136.12 115.23"/><polyline class="cls-1" points="133.46 117.17 131.44 118.64 129.42 117.17"/><polyline class="cls-8" points="124.19 113.37 107.63 101.33 88.45 87.4"/><polyline class="cls-1" points="85.83 85.5 83.81 84.03 84.58 86.41"/><polyline class="cls-9" points="86.42 92.07 97.31 125.58 109.12 161.93"/><polyline class="cls-1" points="110.04 164.76 110.81 167.13 108.44 167.9"/><polyline class="cls-10" points="102.43 169.84 77.92 177.76 50.4 186.65"/><polyline class="cls-1" points="47.4 187.61 45.02 188.38 44.24 186.01"/><polyline class="cls-11" points="42.35 180.29 24.23 125.49 5.17 67.83"/><polyline class="cls-1" points="4.22 64.97 3.44 62.6 5.46 61.13"/><polyline class="cls-12" points="10.4 57.54 44.13 33.02 80.34 6.7"/><polyline class="cls-1" points="82.81 4.91 84.83 3.44 86.85 4.9"/><polyline class="cls-13" points="91.96 8.61 108.13 20.35 126.86 33.95"/><line class="cls-1" x1="83.81" y1="84.03" x2="82.9" y2="81.71"/><line class="cls-14" x1="80.68" y1="76.05" x2="61.47" y2="27.04"/><line class="cls-1" x1="60.36" y1="24.21" x2="59.45" y2="21.89"/><line class="cls-1" x1="179.81" y1="83.49" x2="181.83" y2="82.02"/><line class="cls-15" x1="186.76" y1="78.44" x2="229.51" y2="47.38"/><line class="cls-1" x1="231.98" y1="45.59" x2="234" y2="44.12"/><line class="cls-16" x1="32.99" y1="41.12" x2="78.16" y2="177.76"/><line class="cls-16" x1="61.17" y1="26.29" x2="159.88" y2="97.97"/><line class="cls-16" x1="159.42" y1="56.55" x2="205.12" y2="23.34"/><line class="cls-17" x1="185.63" y1="177.68" x2="186.24" y2="175.77"/><line class="cls-18" x1="187.76" y1="171.02" x2="225.37" y2="53.67"/><line class="cls-17" x1="226.14" y1="51.3" x2="226.75" y2="49.39"/><line class="cls-1" x1="131.44" y1="37.27" x2="133.46" y2="38.74"/><line class="cls-19" x1="138.57" y1="42.45" x2="182.86" y2="74.63"/><line class="cls-1" x1="185.41" y1="76.48" x2="187.44" y2="77.95"/></svg>